<?xml version="1.0" encoding="UTF-8" standalone="no"?>
<svg
   xmlns:dc="http://purl.org/dc/elements/1.1/"
   xmlns:cc="http://creativecommons.org/ns#"
   xmlns:rdf="http://www.w3.org/1999/02/22-rdf-syntax-ns#"
   xmlns:svg="http://www.w3.org/2000/svg"
   xmlns="http://www.w3.org/2000/svg"
   width="225"
   height="90"
   viewBox="0 0 59.531249 23.82"
   version="1.1"
   id="svg8">
  <defs
     id="defs2" />
  <metadata
     id="metadata5">
    <rdf:RDF>
      <cc:Work
         rdf:about="">
        <dc:format>image/svg+xml</dc:format>
        <dc:type
           rdf:resource="http://purl.org/dc/dcmitype/StillImage" />
        <dc:title></dc:title>
      </cc:Work>
    </rdf:RDF>
  </metadata>
  <g
     style="stroke-width:0.66666669"
     id="layer1"
     transform="matrix(1.5,0,0,1.5,-0.09525049,-419.01331)">
    <g
       id="g3785"
       transform="translate(0.29334733,-0.88448559)"
       style="fill:#ffffff;fill-opacity:1;stroke-width:0.66666669">
      <flowRoot
         transform="matrix(0.26458333,0,0,0.26458333,0,282.25891)"
         style="font-style:normal;font-variant:normal;font-weight:normal;font-stretch:normal;font-size:14.66666698px;line-height:18.33333397px;font-family:'Noto Serif';-inkscape-font-specification:'Noto Serif';text-align:start;letter-spacing:0px;word-spacing:0px;text-anchor:start;fill:#ffffff;fill-opacity:1;stroke:none;stroke-width:0.66666669px;stroke-linecap:butt;stroke-linejoin:miter;stroke-opacity:1"
         id="flowRoot18"
         xml:space="preserve"><flowRegion
           style="font-style:normal;font-variant:normal;font-weight:normal;font-stretch:normal;line-height:18.33333397px;font-family:'Noto Serif';-inkscape-font-specification:'Noto Serif';fill:#ffffff;fill-opacity:1;stroke-width:0.66666669px"
           id="flowRegion20"><rect
             style="font-style:normal;font-variant:normal;font-weight:normal;font-stretch:normal;line-height:18.33333397px;font-family:'Noto Serif';-inkscape-font-specification:'Noto Serif';fill:#ffffff;fill-opacity:1;stroke-width:0.66666669px"
             y="-6.9027857e-07"
             x="0"
             height="60"
             width="793.70081"
             id="rect22" /></flowRegion><flowPara
           style="font-style:normal;font-variant:normal;font-weight:normal;font-stretch:normal;font-size:26.66666794px;line-height:24px;font-family:'Noto Serif';-inkscape-font-specification:'Noto Serif';fill:#ffffff;fill-opacity:1;stroke-width:0.66666669px"
           id="flowPara24">Read <flowSpan
   id="flowSpan30"
   style="font-style:normal;font-variant:normal;font-weight:normal;font-stretch:normal;line-height:24px;font-family:Anaktoria;-inkscape-font-specification:Anaktoria;fill:#ffffff;fill-opacity:1;stroke-width:0.66666669px">Classics</flowSpan></flowPara><flowPara
           style="font-style:normal;font-variant:normal;font-weight:normal;font-stretch:normal;font-size:26.66666794px;line-height:24px;font-family:'Noto Serif';-inkscape-font-specification:'Noto Serif';fill:#ffffff;fill-opacity:1;stroke-width:0.66666669px"
           id="flowPara26">With Me </flowPara></flowRoot>      <g
         id="flowRoot61"
         style="font-style:normal;font-weight:normal;font-size:14.66666698px;line-height:125%;font-family:Sans;text-align:start;letter-spacing:0px;word-spacing:0px;text-anchor:start;fill:#ffffff;fill-opacity:1;stroke:none;stroke-width:0.66666669px;stroke-linecap:butt;stroke-linejoin:miter;stroke-opacity:1"
         transform="matrix(0.26458333,0,0,0.26458333,-11.648442,280.71325)"
         aria-label="🕮">
        <path
           id="path3772"
           style="font-size:26.66666794px;fill:#ffffff;fill-opacity:1;stroke-width:0.66666669px"
           d="M 184.04818,51.1315 V 34.522605 c 0,0 -3.69454,-2.626213 -5.83334,-2.67682 -1.79628,-0.0425 -4.99999,2.013907 -4.99999,2.013907 0,0 -3.20373,-2.056411 -5.00001,-2.013907 -2.1388,0.05061 -5.83333,2.67682 -5.83333,2.67682 V 51.1315 c 0,0 3.70736,-2.55028 5.83333,-2.580357 1.80046,-0.02547 5.00001,2.044643 5.00001,2.044643 0,0 3.19954,-2.070112 4.99999,-2.044643 2.12598,0.03007 5.83334,2.580357 5.83334,2.580357 z m -10,-15.952381 c 0,0 2.67078,-1.666666 4.16666,-1.666667 1.49588,-1e-6 4.16667,1.666667 4.16667,1.666667 v 13.333334 c 0,0 -2.67079,-1.666668 -4.16667,-1.666667 -1.49588,1e-6 -4.16666,1.666667 -4.16666,1.666667 V 35.179119 h -1.66667 v 13.333334 c 0,0 -2.67079,-1.666668 -4.16667,-1.666667 -1.49588,1e-6 -4.16666,1.666667 -4.16666,1.666667 v -6.666667 -6.666667 c 0,0 2.67078,-1.666666 4.16666,-1.666667 1.49588,-1e-6 4.16667,1.666667 4.16667,1.666667" />
      </g>
    </g>
  </g>
</svg>
