<?xml version="1.0" encoding="UTF-8" standalone="no"?>
<svg
   xmlns:dc="http://purl.org/dc/elements/1.1/"
   xmlns:cc="http://creativecommons.org/ns#"
   xmlns:rdf="http://www.w3.org/1999/02/22-rdf-syntax-ns#"
   xmlns:svg="http://www.w3.org/2000/svg"
   xmlns="http://www.w3.org/2000/svg"
   id="svg8"
   version="1.1"
   viewBox="0 0 300 90"
   height="90"
   width="300">
  <defs
     id="defs2" />
  <metadata
     id="metadata5">
    <rdf:RDF>
      <cc:Work
         rdf:about="">
        <dc:format>image/svg+xml</dc:format>
        <dc:type
           rdf:resource="http://purl.org/dc/dcmitype/StillImage" />
        <dc:title></dc:title>
      </cc:Work>
    </rdf:RDF>
  </metadata>
  <rect
     y="-0.30612239"
     x="-1.0204082"
     height="90"
     width="300"
     id="rect96"
     style="opacity:1;fill:#000000;fill-opacity:1;stroke:none;stroke-width:0.75590551;stroke-linecap:round;stroke-miterlimit:4;stroke-dasharray:none;stroke-dashoffset:0;stroke-opacity:1" />
  <g
     transform="translate(-1.021038,4.2451348)"
     id="g78">
    <flowRoot
       transform="matrix(1.6233881,0,0,1.5278947,-5.3797173,7.5878214)"
       style="font-style:normal;font-variant:normal;font-weight:normal;font-stretch:normal;font-size:14.66666698px;line-height:18.33333397px;font-family:'Noto Serif';-inkscape-font-specification:'Noto Serif';text-align:start;letter-spacing:0px;word-spacing:0px;text-anchor:start;fill:#ffffff;fill-opacity:1;stroke:none;stroke-width:0.16799819px;stroke-linecap:butt;stroke-linejoin:miter;stroke-opacity:1"
       id="flowRoot18"
       xml:space="preserve"><flowRegion
         style="font-style:normal;font-variant:normal;font-weight:normal;font-stretch:normal;line-height:18.33333397px;font-family:'Noto Serif';-inkscape-font-specification:'Noto Serif';fill:#ffffff;fill-opacity:1;stroke-width:0.16799819px"
         id="flowRegion20"><rect
           style="font-style:normal;font-variant:normal;font-weight:normal;font-stretch:normal;line-height:18.33333397px;font-family:'Noto Serif';-inkscape-font-specification:'Noto Serif';fill:#ffffff;fill-opacity:1;stroke-width:0.16799819px"
           y="-6.9027857e-07"
           x="0"
           height="50.828457"
           width="177.30615"
           id="rect22" /></flowRegion><flowPara
         style="font-style:normal;font-variant:normal;font-weight:normal;font-stretch:normal;font-size:26.66666794px;line-height:20.82648468px;font-family:'Noto Serif';-inkscape-font-specification:'Noto Serif';text-align:end;text-anchor:end;fill:#ffffff;fill-opacity:1;stroke-width:0.16799819px"
         id="flowPara28"><flowSpan
           style="font-style:normal;font-variant:normal;font-weight:normal;font-stretch:normal;line-height:20.82648468px;font-family:Anaktoria;-inkscape-font-specification:Anaktoria;text-align:end;text-anchor:end;stroke-width:0.16799819px"
           id="flowSpan34">Literature</flowSpan><flowSpan
           style="font-style:normal;font-variant:normal;font-weight:normal;font-stretch:normal;font-size:23.7049408px;line-height:20.82648468px;font-family:'DejaVu Serif';-inkscape-font-specification:'DejaVu Serif'"
           id="flowSpan23"><flowSpan
   style="font-size:22.01173019px;line-height:20.82648468px"
   id="flowSpan31"> for Eyes and </flowSpan>Ears</flowSpan><flowSpan
           style="font-size:23.7049408px;line-height:20.82648468px"
           id="flowSpan25"> </flowSpan></flowPara></flowRoot>    <g
       id="flowRoot61"
       style="font-style:normal;font-weight:normal;font-size:14.66666698px;line-height:125%;font-family:Sans;text-align:start;letter-spacing:0px;word-spacing:0px;text-anchor:start;fill:#ffffff;fill-opacity:1;stroke:none;stroke-width:0.16799819px;stroke-linecap:butt;stroke-linejoin:miter;stroke-opacity:1"
       transform="matrix(1.6233881,0,0,1.5278947,-246.94005,-38.83247)"
       aria-label="🕮">
      <path
         id="path3772"
         style="font-size:26.66666794px;fill:#ffffff;fill-opacity:1;stroke-width:0.16799819px"
         d="M 182.89809,47.169521 V 32.916582 c 0,0 -3.17047,-2.253688 -5.00588,-2.297116 -1.54148,-0.03647 -4.29075,1.728236 -4.29075,1.728236 0,0 -2.74928,-1.764711 -4.29076,-1.728236 -1.83542,0.04343 -5.00588,2.297116 -5.00588,2.297116 v 14.252939 c 0,0 3.18147,-2.188525 5.00588,-2.214336 1.54506,-0.02186 4.29076,1.754612 4.29076,1.754612 0,0 2.74569,-1.776468 4.29075,-1.754612 1.82441,0.0258 5.00588,2.214336 5.00588,2.214336 z M 174.31658,33.47997 c 0,0 2.29193,-1.430251 3.57563,-1.430252 1.28369,-10e-7 3.57563,1.430252 3.57563,1.430252 v 11.442013 c 0,0 -2.29194,-1.430253 -3.57563,-1.430252 -1.2837,10e-7 -3.57563,1.430252 -3.57563,1.430252 V 33.47997 h -1.43025 v 11.442013 c 0,0 -2.29194,-1.430253 -3.57563,-1.430252 -1.2837,10e-7 -3.57563,1.430252 -3.57563,1.430252 V 39.200976 33.47997 c 0,0 2.29193,-1.430251 3.57563,-1.430252 1.28369,-10e-7 3.57563,1.430252 3.57563,1.430252" />
    </g>
  </g>
</svg>
