<?xml version="1.0" encoding="UTF-8" standalone="no"?>
<svg
   xmlns:dc="http://purl.org/dc/elements/1.1/"
   xmlns:cc="http://creativecommons.org/ns#"
   xmlns:rdf="http://www.w3.org/1999/02/22-rdf-syntax-ns#"
   xmlns:svg="http://www.w3.org/2000/svg"
   xmlns="http://www.w3.org/2000/svg"
   width="512"
   height="512"
   viewBox="0 0 512 512"
   version="1.1"
   id="svg8">
  <defs
     id="defs2" />
  <metadata
     id="metadata5">
    <rdf:RDF>
      <cc:Work
         rdf:about="">
        <dc:format>image/svg+xml</dc:format>
        <dc:type
           rdf:resource="http://purl.org/dc/dcmitype/StillImage" />
        <dc:title></dc:title>
      </cc:Work>
    </rdf:RDF>
  </metadata>
  <rect
     style="opacity:1;fill:#000000;fill-opacity:1;stroke:none;stroke-width:0.75590551;stroke-linecap:round;stroke-miterlimit:4;stroke-dasharray:none;stroke-dashoffset:0;stroke-opacity:1"
     id="rect36"
     width="512"
     height="512"
     x="0"
     y="0" />
  <g
     id="flowRoot61"
     style="font-style:normal;font-weight:normal;font-size:14.66666698px;line-height:125%;font-family:Sans;text-align:start;letter-spacing:0px;word-spacing:0px;text-anchor:start;fill:#ffffff;fill-opacity:1;stroke:none;stroke-width:0.01408576px;stroke-linecap:butt;stroke-linejoin:miter;stroke-opacity:1"
     transform="matrix(19.361844,0,0,18.222913,-3105.2443,-468.76589)"
     aria-label="🕮">
    <path
       id="path3772"
       style="font-size:26.66666794px;fill:#ffffff;fill-opacity:1;stroke-width:0.01408576px"
       d="M 182.89809,47.169521 V 32.916582 c 0,0 -3.17047,-2.253688 -5.00588,-2.297116 -1.54148,-0.03647 -4.29075,1.728236 -4.29075,1.728236 0,0 -2.74928,-1.764711 -4.29076,-1.728236 -1.83542,0.04343 -5.00588,2.297116 -5.00588,2.297116 v 14.252939 c 0,0 3.18147,-2.188525 5.00588,-2.214336 1.54506,-0.02186 4.29076,1.754612 4.29076,1.754612 0,0 2.74569,-1.776468 4.29075,-1.754612 1.82441,0.0258 5.00588,2.214336 5.00588,2.214336 z M 174.31658,33.47997 c 0,0 2.29193,-1.430251 3.57563,-1.430252 1.28369,-10e-7 3.57563,1.430252 3.57563,1.430252 v 11.442013 c 0,0 -2.29194,-1.430253 -3.57563,-1.430252 -1.2837,10e-7 -3.57563,1.430252 -3.57563,1.430252 V 33.47997 h -1.43025 v 11.442013 c 0,0 -2.29194,-1.430253 -3.57563,-1.430252 -1.2837,10e-7 -3.57563,1.430252 -3.57563,1.430252 V 39.200976 33.47997 c 0,0 2.29193,-1.430251 3.57563,-1.430252 1.28369,-10e-7 3.57563,1.430252 3.57563,1.430252" />
  </g>
</svg>
